<svg width="60" height="60" viewBox="0 0 60 60" fill="none" xmlns="http://www.w3.org/2000/svg">
<rect width="60" height="60" rx="8" fill="#355D9A"/>
<path d="M40.0001 30.7627L30.1641 40.6667L20.328 30.7627C19.6792 30.1208 19.1682 29.3493 18.8271 28.4968C18.486 27.6443 18.3222 26.7293 18.346 25.8092C18.3699 24.8892 18.5808 23.9842 18.9656 23.1511C19.3504 22.318 19.9006 21.575 20.5818 20.9688C21.2629 20.3625 22.0601 19.9062 22.9232 19.6286C23.7863 19.351 24.6965 19.2581 25.5967 19.3557C26.4968 19.4534 27.3674 19.7394 28.1534 20.1959C28.9395 20.6523 29.6241 21.2693 30.1641 22.008C30.7064 21.2747 31.3918 20.6631 32.1773 20.2115C32.9628 19.7598 33.8316 19.4779 34.7292 19.3834C35.6269 19.2888 36.534 19.3836 37.3939 19.6618C38.2539 19.9401 39.048 20.3958 39.7268 21.0005C40.4055 21.6051 40.9541 22.3457 41.3384 23.1758C41.7226 24.006 41.9342 24.9078 41.9599 25.8249C41.9855 26.742 41.8247 27.6546 41.4875 28.5057C41.1503 29.3567 40.644 30.1278 40.0001 30.7707" stroke="white" stroke-width="2" stroke-linecap="round" stroke-linejoin="round"/>
</svg>
