<svg width="60" height="60" viewBox="0 0 60 60" fill="none" xmlns="http://www.w3.org/2000/svg">
<rect width="60" height="60" rx="8" fill="#355D9A"/>
<path d="M23.0507 28.6666V39.3333C23.0507 39.6869 22.9078 40.026 22.6535 40.2761C22.3993 40.5261 22.0544 40.6666 21.6947 40.6666H18.9829C18.6233 40.6666 18.2784 40.5261 18.0241 40.2761C17.7698 40.026 17.627 39.6869 17.627 39.3333V29.9999C17.627 29.6463 17.7698 29.3072 18.0241 29.0571C18.2784 28.8071 18.6233 28.6666 18.9829 28.6666H23.0507ZM23.0507 28.6666C24.4891 28.6666 25.8687 28.1047 26.8858 27.1045C27.903 26.1043 28.4744 24.7477 28.4744 23.3333V21.9999C28.4744 21.2927 28.7601 20.6144 29.2687 20.1143C29.7773 19.6142 30.467 19.3333 31.1863 19.3333C31.9055 19.3333 32.5953 19.6142 33.1039 20.1143C33.6124 20.6144 33.8981 21.2927 33.8981 21.9999V28.6666H37.9659C38.6852 28.6666 39.3749 28.9475 39.8835 29.4476C40.3921 29.9477 40.6778 30.626 40.6778 31.3333L39.3219 37.9999C39.1269 38.8179 38.7569 39.5202 38.2678 40.0012C37.7787 40.4822 37.1969 40.7157 36.61 40.6666H27.1185C26.0396 40.6666 25.005 40.2452 24.2421 39.495C23.4793 38.7449 23.0507 37.7275 23.0507 36.6666" stroke="white" stroke-width="2" stroke-linecap="round" stroke-linejoin="round"/>
</svg>
